<svg width="51" height="52" viewBox="0 0 51 52" fill="none" xmlns="http://www.w3.org/2000/svg">
    <path d="M0.656045 20.8228C0.656045 17.2796 0.656454 14.6539 0.826263 12.5755C0.995571 10.5033 1.33065 9.02158 1.97444 7.75807C3.13414 5.48204 4.98461 3.63157 7.26064 2.47188C8.52414 1.82809 10.0059 1.49301 12.0781 1.3237C14.1564 1.15389 16.7822 1.15348 20.3254 1.15348H30.423C33.9662 1.15348 36.5919 1.15389 38.6703 1.3237C40.7425 1.49301 42.2242 1.82809 43.4877 2.47188C45.7638 3.63157 47.6142 5.48204 48.7739 7.75807C49.4177 9.02158 49.7528 10.5033 49.9221 12.5755C50.0919 14.6539 50.0923 17.2796 50.0923 20.8228V30.9204C50.0923 34.4636 50.0919 37.0894 49.9221 39.1677C49.7528 41.24 49.4177 42.7217 48.7739 43.9852C47.6142 46.2612 45.7638 48.1117 43.4877 49.2714C42.2242 49.9152 40.7425 50.2502 38.6703 50.4195C36.5919 50.5894 33.9662 50.5898 30.423 50.5898H20.3254C16.7822 50.5898 14.1564 50.5894 12.0781 50.4195C10.0058 50.2502 8.52414 49.9152 7.26064 49.2714C4.98461 48.1117 3.13414 46.2612 1.97444 43.9852C1.33066 42.7217 0.995571 41.24 0.826263 39.1677C0.656454 37.0894 0.656045 34.4636 0.656045 30.9204V20.8228Z"
          stroke="#75A488" stroke-width="1.05184"/>
    <path opacity="0.8"
          d="M23.6939 29.341H17.9302C17.2008 29.341 16.6086 29.9228 16.6086 30.6394C16.6086 31.3551 17.2008 31.9379 17.9302 31.9379H23.6939C24.4233 31.9379 25.0155 31.3551 25.0155 30.6394C25.0155 29.9228 24.4233 29.341 23.6939 29.341Z"
          fill="#75A488"/>
    <path opacity="0.8"
          d="M34.139 20.9444C34.139 20.2287 33.5469 19.647 32.8184 19.647H27.0548C26.3253 19.647 25.7332 20.2287 25.7332 20.9444C25.7332 21.6611 26.3253 22.2429 27.0548 22.2429H32.8184C33.5469 22.2429 34.139 21.6611 34.139 20.9444Z"
          fill="#75A488"/>
    <path d="M22.6376 20.9444C22.6376 22.5806 21.2887 23.9067 19.6233 23.9067C17.9589 23.9067 16.609 22.5806 16.609 20.9444C16.609 19.3091 17.9589 17.983 19.6233 17.983C21.2887 17.983 22.6376 19.3091 22.6376 20.9444Z"
          fill="#55836F"/>
    <path d="M34.139 30.6042C34.139 32.2394 32.7901 33.5656 31.1247 33.5656C29.4603 33.5656 28.1105 32.2394 28.1105 30.6042C28.1105 28.968 29.4603 27.6418 31.1247 27.6418C32.7901 27.6418 34.139 28.968 34.139 30.6042Z"
          fill="#55836F"/>
</svg>
