<svg width="42" height="42" viewBox="0 0 42 42" fill="none" xmlns="http://www.w3.org/2000/svg">
    <path d="M0.723022 28.4822C0.81715 28.0695 0.893093 27.6515 1.00861 27.2442C1.54343 25.3669 2.64942 23.8552 4.07416 22.5594C5.33739 21.4112 6.7739 20.5281 8.30667 19.7862C8.72917 19.582 8.88641 19.6365 9.10568 20.0524C9.32496 20.4683 9.52818 20.8521 9.74104 21.2519C9.98171 21.7031 9.93036 21.8645 9.45438 22.0922C7.943 22.8171 6.52467 23.683 5.34702 24.8932C4.28274 25.9859 3.50405 27.2292 3.33505 28.7912C3.18316 30.1639 3.5939 31.3698 4.34906 32.4796C5.37162 33.9838 6.79636 35.0315 8.36015 35.9007C10.831 37.2745 13.5008 38.057 16.2818 38.4932C18.6417 38.8686 21.0368 38.973 23.4205 38.8043C26.3983 38.5905 29.2959 38.0079 32.0759 36.88C32.5134 36.7036 32.7829 36.5026 32.9498 36.0076C33.3595 34.7888 34.7125 34.1527 35.9704 34.4809C36.5825 34.6437 37.1135 35.0256 37.4624 35.554C37.8112 36.0825 37.9536 36.7206 37.8626 37.3472C37.7 38.567 36.5983 39.5067 35.3276 39.5238C34.8191 39.5237 34.321 39.3807 33.89 39.1112C33.827 39.079 33.7581 39.06 33.6875 39.0552C33.6169 39.0504 33.546 39.06 33.4793 39.0834C31.2764 40.0283 28.9597 40.682 26.5877 41.0281C25.518 41.1884 24.4431 41.2601 23.3702 41.3755C23.2659 41.3917 23.1627 41.4142 23.0611 41.4429H19.2982C19.1707 41.4086 19.0409 41.3836 18.9099 41.368C17.0629 41.2662 15.2293 40.9943 13.4323 40.5555C10.2983 39.7965 7.34829 38.6237 4.7876 36.6148C3.03448 35.2432 1.65146 33.585 1.01503 31.3987C0.897372 30.9924 0.819289 30.5744 0.723022 30.1639V28.4822Z"
          fill="url(#paint0_linear_3_22020)"/>
    <path d="M21.2289 0.442993C24.0013 0.455981 26.6797 1.44895 28.79 3.24614C30.9004 5.04332 32.3065 7.52881 32.7595 10.2627C33.2023 12.9258 32.6375 15.42 31.5743 17.8383C30.2255 20.9066 28.3098 23.6114 26.0946 26.0981C24.8367 27.5104 23.4826 28.8382 22.1423 30.1735C21.5797 30.7337 20.8898 30.7209 20.3154 30.1906C16.898 27.0325 13.8763 23.5515 11.645 19.4398C10.6685 17.6394 9.90797 15.7493 9.64057 13.7094C9.20202 10.3706 10.0566 7.36326 12.1852 4.7536C14.0934 2.41655 16.5792 1.04596 19.5571 0.584114C20.1079 0.49431 20.6705 0.486826 21.2289 0.442993ZM27.6252 12.0085C27.6189 10.3173 26.9471 8.69653 25.7551 7.49629C24.5631 6.29604 22.9465 5.61271 21.2546 5.59391C17.743 5.57466 14.8261 8.46978 14.8176 11.9828C14.809 15.4959 17.7184 18.4028 21.2289 18.3974C24.7394 18.3921 27.6199 15.5044 27.6252 12.0085Z"
          fill="url(#paint1_linear_3_22020)"/>
    <path d="M21.3529 35.0967C20.1527 35.0251 19.1419 34.977 18.1322 34.8979C17.6701 34.8615 17.5803 34.6669 17.6958 34.2265C17.8199 33.7518 17.9236 33.2707 18.0028 32.7864C18.0573 32.4528 18.2338 32.3213 18.5483 32.3513C21.0727 32.5901 23.6174 32.4985 26.1181 32.0787C27.7631 31.805 29.3751 31.3976 30.8415 30.5627C31.1534 30.3836 31.4453 30.1718 31.7122 29.9308C32.2235 29.469 32.2363 29.0756 31.7058 28.633C31.291 28.3012 30.8463 28.0088 30.3773 27.7595C30.0318 27.5649 29.6468 27.4388 29.2809 27.2827C28.883 27.1116 28.8157 26.8796 29.0777 26.5343C29.4082 26.1003 29.7559 25.679 30.0853 25.2418C30.2468 25.028 30.4468 24.9649 30.6822 25.0611C31.8587 25.5443 32.9744 26.1302 33.8279 27.1159C34.9457 28.3988 34.9692 30.0709 33.8857 31.3816C33.1637 32.2551 32.2192 32.8217 31.202 33.2771C29.3141 34.1228 27.315 34.56 25.2731 34.7899C23.9114 34.9428 22.5434 35.0069 21.3529 35.0967Z"
          fill="url(#paint2_linear_3_22020)"/>
    <path d="M41.723 28.712C41.723 30.9743 41.1764 32.5063 40.2255 33.9068C39.9774 34.2756 39.7271 34.266 39.4233 33.9335C39.1061 33.5756 38.7689 33.2358 38.4136 32.9157C38.143 32.6784 38.1312 32.4763 38.2713 32.1535C38.5708 31.465 38.9131 30.7701 39.0564 30.0431C39.3837 28.4041 38.7815 26.9801 37.7953 25.7015C36.6123 24.1694 35.0453 23.1249 33.3414 22.2654C32.4055 21.7939 32.4033 21.7992 32.9135 20.8638C33.079 20.5602 33.2394 20.254 33.3949 19.9454C33.5264 19.6835 33.7393 19.6001 33.9907 19.7209C36.869 21.0947 39.4062 22.8651 40.894 25.8148C41.4428 26.8924 41.7273 28.0492 41.723 28.712Z"
          fill="url(#paint3_linear_3_22020)"/>
    <path d="M7.75696 29.4273C7.78049 28.0813 8.35702 27.1821 9.23839 26.5353C10.0021 25.9719 10.8749 25.555 11.7082 25.0889C11.982 24.9349 12.2098 25.0343 12.397 25.2877C12.6976 25.695 13.0195 26.0874 13.3297 26.4872C13.6399 26.8871 13.5714 27.0966 13.1158 27.3094C12.489 27.598 11.8739 27.9123 11.2557 28.2181C11.2085 28.2434 11.1641 28.2735 11.1231 28.3079C10.1133 29.0467 10.1155 29.5192 11.1134 30.2601C11.2942 30.3948 11.4108 30.3787 11.6023 30.2708C12.0651 29.999 12.6015 29.8791 13.136 29.9279C13.6705 29.9767 14.1763 30.1917 14.5822 30.5427C14.9881 30.8938 15.2738 31.3631 15.3989 31.8848C15.5241 32.4065 15.4825 32.9543 15.2799 33.4512C15.0774 33.948 14.7242 34.3689 14.2699 34.6547C13.8156 34.9404 13.2832 35.0767 12.7474 35.0442C12.2116 35.0118 11.6995 34.8123 11.283 34.4739C10.8666 34.1354 10.5667 33.675 10.4257 33.1573C10.4003 33.0344 10.3481 32.9186 10.2728 32.8181C10.1976 32.7175 10.1012 32.6348 9.99034 32.5757C8.73674 31.8156 7.83076 30.8053 7.75696 29.4273Z"
          fill="url(#paint4_linear_3_22020)"/>
    <path d="M25.0622 11.999C25.0616 12.7594 24.8351 13.5026 24.4113 14.1342C23.9876 14.7659 23.3858 15.2575 22.6822 15.5469C21.9786 15.8363 21.2049 15.9104 20.4591 15.7598C19.7134 15.6092 19.0291 15.2406 18.4932 14.7008C17.9572 14.1611 17.5936 13.4744 17.4485 12.7279C17.3035 11.9814 17.3834 11.2086 17.6782 10.5076C17.9731 9.8065 18.4695 9.20873 19.1047 8.79C19.7398 8.37128 20.485 8.15046 21.2458 8.15554C21.7494 8.15581 22.2479 8.25562 22.7127 8.44922C23.1775 8.64282 23.5994 8.92639 23.9541 9.28361C24.3088 9.64083 24.5893 10.0646 24.7795 10.5307C24.9697 10.9967 25.0658 11.4957 25.0622 11.999Z"
          fill="url(#paint5_linear_3_22020)"/>
    <defs>
        <linearGradient id="paint0_linear_3_22020" x1="19.3062" y1="41.4432" x2="19.3062" y2="19.671"
                        gradientUnits="userSpaceOnUse">
            <stop stop-color="#FEAA42"/>
            <stop offset="0.01" stop-color="#FBA33F"/>
            <stop offset="0.03" stop-color="#F59838"/>
            <stop offset="0.06" stop-color="#F29135"/>
            <stop offset="0.15" stop-color="#F18F34"/>
            <stop offset="0.23" stop-color="#F28F3E"/>
            <stop offset="0.37" stop-color="#F38E5A"/>
            <stop offset="0.55" stop-color="#F68D88"/>
            <stop offset="0.62" stop-color="#F78C9B"/>
            <stop offset="1" stop-color="#F08672"/>
        </linearGradient>
        <linearGradient id="paint1_linear_3_22020" x1="21.2201" y1="30.5915" x2="21.2201" y2="0.442993"
                        gradientUnits="userSpaceOnUse">
            <stop stop-color="#FEAA42"/>
            <stop offset="0.01" stop-color="#FBA33F"/>
            <stop offset="0.03" stop-color="#F59838"/>
            <stop offset="0.06" stop-color="#F29135"/>
            <stop offset="0.15" stop-color="#F18F34"/>
            <stop offset="0.23" stop-color="#F28F3E"/>
            <stop offset="0.37" stop-color="#F38E5A"/>
            <stop offset="0.55" stop-color="#F68D88"/>
            <stop offset="0.62" stop-color="#F78C9B"/>
            <stop offset="1" stop-color="#F08672"/>
        </linearGradient>
        <linearGradient id="paint2_linear_3_22020" x1="26.1664" y1="35.0969" x2="26.1664" y2="25.0173"
                        gradientUnits="userSpaceOnUse">
            <stop stop-color="#FEAA42"/>
            <stop offset="0.01" stop-color="#FBA33F"/>
            <stop offset="0.03" stop-color="#F59838"/>
            <stop offset="0.06" stop-color="#F29135"/>
            <stop offset="0.15" stop-color="#F18F34"/>
            <stop offset="0.23" stop-color="#F28F3E"/>
            <stop offset="0.37" stop-color="#F38E5A"/>
            <stop offset="0.55" stop-color="#F68D88"/>
            <stop offset="0.62" stop-color="#F78C9B"/>
            <stop offset="1" stop-color="#F08672"/>
        </linearGradient>
        <linearGradient id="paint3_linear_3_22020" x1="37.148" y1="34.1834" x2="37.148" y2="19.6666"
                        gradientUnits="userSpaceOnUse">
            <stop stop-color="#FEAA42"/>
            <stop offset="0.01" stop-color="#FBA33F"/>
            <stop offset="0.03" stop-color="#F59838"/>
            <stop offset="0.06" stop-color="#F29135"/>
            <stop offset="0.15" stop-color="#F18F34"/>
            <stop offset="0.23" stop-color="#F28F3E"/>
            <stop offset="0.37" stop-color="#F38E5A"/>
            <stop offset="0.55" stop-color="#F68D88"/>
            <stop offset="0.62" stop-color="#F78C9B"/>
            <stop offset="1" stop-color="#F08672"/>
        </linearGradient>
        <linearGradient id="paint4_linear_3_22020" x1="11.6133" y1="35.0491" x2="11.6133" y2="25.0156"
                        gradientUnits="userSpaceOnUse">
            <stop stop-color="#FEAA42"/>
            <stop offset="0.01" stop-color="#FBA33F"/>
            <stop offset="0.03" stop-color="#F59838"/>
            <stop offset="0.06" stop-color="#F29135"/>
            <stop offset="0.15" stop-color="#F18F34"/>
            <stop offset="0.23" stop-color="#F28F3E"/>
            <stop offset="0.37" stop-color="#F38E5A"/>
            <stop offset="0.55" stop-color="#F68D88"/>
            <stop offset="0.62" stop-color="#F78C9B"/>
            <stop offset="1" stop-color="#F08672"/>
        </linearGradient>
        <linearGradient id="paint5_linear_3_22020" x1="21.2202" y1="15.836" x2="21.2202" y2="8.15546"
                        gradientUnits="userSpaceOnUse">
            <stop stop-color="#FEAA42"/>
            <stop offset="0.01" stop-color="#FBA33F"/>
            <stop offset="0.03" stop-color="#F59838"/>
            <stop offset="0.06" stop-color="#F29135"/>
            <stop offset="0.15" stop-color="#F18F34"/>
            <stop offset="0.23" stop-color="#F28F3E"/>
            <stop offset="0.37" stop-color="#F38E5A"/>
            <stop offset="0.55" stop-color="#F68D88"/>
            <stop offset="0.62" stop-color="#F78C9B"/>
            <stop offset="1" stop-color="#F08672"/>
        </linearGradient>
    </defs>
</svg>