<svg width="18" height="21" viewBox="0 0 18 21" fill="none" xmlns="http://www.w3.org/2000/svg">
    <path d="M16.6333 9.78913C15.9028 8.93609 15.5708 8.19685 15.5708 6.94095V6.51393C15.5708 4.87733 15.1942 3.82286 14.3752 2.76839C13.113 1.13079 10.9881 0.143799 8.908 0.143799H8.81954C6.78312 0.143799 4.72483 1.08547 3.44077 2.6566C2.5771 3.73222 2.1567 4.83201 2.1567 6.51393V6.94095C2.1567 8.19685 1.84661 8.93609 1.09426 9.78913C0.540677 10.4176 0.36377 11.2253 0.36377 12.0995C0.36377 12.9747 0.650996 13.8036 1.22744 14.4773C1.97979 15.2851 3.04223 15.8007 4.12752 15.8904C5.69882 16.0696 7.27011 16.1371 8.86427 16.1371C10.4574 16.1371 12.0287 16.0243 13.601 15.8904C14.6853 15.8007 15.7478 15.2851 16.5001 14.4773C17.0756 13.8036 17.3638 12.9747 17.3638 12.0995C17.3638 11.2253 17.1869 10.4176 16.6333 9.78913"
          fill="white"/>
    <path opacity="0.4"
          d="M10.8725 17.3722C10.3726 17.2654 7.32643 17.2654 6.82652 17.3722C6.39916 17.4709 5.93701 17.7005 5.93701 18.2041C5.96186 18.6845 6.24312 19.1085 6.63271 19.3774L6.63172 19.3784C7.13561 19.7712 7.72696 20.0209 8.34613 20.1106C8.67609 20.1559 9.01202 20.1539 9.35391 20.1106C9.97209 20.0209 10.5634 19.7712 11.0673 19.3784L11.0663 19.3774C11.4559 19.1085 11.7372 18.6845 11.762 18.2041C11.762 17.7005 11.2999 17.4709 10.8725 17.3722"
          fill="white"/>
</svg>