<svg width="15" height="14" viewBox="0 0 15 14" fill="none" xmlns="http://www.w3.org/2000/svg">
    <path d="M7.07996 0.642128C7.24272 0.169025 7.91182 0.169024 8.07458 0.642126L9.47582 4.71512C9.54886 4.92742 9.74862 5.06995 9.97313 5.06995L14.4408 5.06995C14.9575 5.06995 15.1644 5.73716 14.7384 6.02951L11.1766 8.4735C10.9817 8.60727 10.9 8.85467 10.9769 9.07824L12.3494 13.0677C12.5143 13.547 11.9724 13.9592 11.5545 13.6724L7.87483 11.1475C7.69553 11.0245 7.45901 11.0245 7.27971 11.1475L3.60004 13.6724C3.18211 13.9592 2.64028 13.547 2.80517 13.0677L4.17766 9.07824C4.25458 8.85468 4.17285 8.60727 3.97791 8.4735L0.416179 6.02951C-0.00988054 5.73716 0.197019 5.06995 0.713736 5.06995L5.18141 5.06995C5.40592 5.06995 5.60568 4.92742 5.67872 4.71512L7.07996 0.642128Z"
          fill="#FFB61D"/>
</svg>